<svg xmlns="http://www.w3.org/2000/svg" version="1.1" xmlns:xlink="http://www.w3.org/1999/xlink" xmlns:svgjs="http://svgjs.dev/svgjs" width="1000" height="750" viewBox="0 0 1000 750"><rect width="1000" height="750" fill="#ffffff"></rect><g transform="matrix(0.5845845845845846,0,0,0.5845845845845846,207.58158741832204,82.87400583090377)"><svg viewBox="0 0 343 343" data-background-color="#ffffff" preserveAspectRatio="xMidYMid meet" height="999" width="1000" xmlns="http://www.w3.org/2000/svg" xmlns:xlink="http://www.w3.org/1999/xlink"><defs></defs><g id="tight-bounds" transform="matrix(1,0,0,1,0.07400000000001228,0.07400000000001228)"><svg viewBox="0 0 342.8515585177538 342.8515585177538" height="342.8515585177538" width="342.8515585177538"><g><svg></svg></g><g><svg viewBox="0 0 342.8515585177538 342.8515585177538" height="342.8515585177538" width="342.8515585177538"><g><path d="M0 171.426c0-94.676 76.75-171.426 171.426-171.426 94.676 0 171.426 76.75 171.426 171.426 0 94.676-76.75 171.426-171.426 171.426-94.676 0-171.426-76.75-171.426-171.426zM171.426 339.587c92.873 0 168.161-75.288 168.161-168.161 0-92.873-75.288-168.161-168.161-168.161-92.873 0-168.161 75.288-168.161 168.161 0 92.873 75.288 168.161 168.161 168.161z" data-fill-palette-color="tertiary" fill="#010c80" stroke="transparent"></path><ellipse rx="164.56874808852183" ry="164.56874808852183" cx="171.4257792588769" cy="171.4257792588769" fill="#010c80" stroke="transparent" stroke-width="0" fill-opacity="1" data-fill-palette-color="tertiary"></ellipse></g><g transform="matrix(1,0,0,1,64.84655864529836,84.86749162202736)"><svg viewBox="0 0 213.15844122715708 173.11657527369908" height="173.11657527369908" width="213.15844122715708"><g><svg viewBox="0 0 213.15844122715708 173.11657527369908" height="173.11657527369908" width="213.15844122715708"><g><svg viewBox="0 0 264.11836628153117 214.50366579110553" height="173.11657527369908" width="213.15844122715708"><g transform="matrix(1,0,0,1,132.55200501854333,0)"><svg viewBox="0 0 131.56636126298787 214.50366579110553" height="214.50366579110553" width="131.56636126298787"><g><svg viewBox="0 0 131.56636126298787 214.50366579110553" height="214.50366579110553" width="131.56636126298787"><g><svg viewBox="0 0 131.56636126298787 190.3746100603733" height="190.3746100603733" width="131.56636126298787"><g transform="matrix(1,0,0,1,0,0)"><svg width="131.56636126298787" viewBox="0.44999999999999984 -32.8 144.3 201.2" height="190.3746100603733" data-palette-color="#ffffff"><svg></svg><svg></svg><svg></svg><svg></svg><g class="undefined-text-0" data-fill-palette-color="quaternary" id="text-0"><path d="M15.7 0.6c-4.6 0-8.173-1.4-10.72-4.2-2.553-2.8-3.83-6.717-3.83-11.75v0c0-3.6 0.65-6.71 1.95-9.33 1.3-2.613 3.183-4.62 5.65-6.02 2.467-1.4 5.383-2.1 8.75-2.1v0c4.733 0 8.367 1.367 10.9 4.1 2.533 2.733 3.8 6.633 3.8 11.7v0c0 3.6-0.667 6.723-2 9.37-1.333 2.653-3.24 4.687-5.72 6.1-2.487 1.42-5.413 2.13-8.78 2.13zM16.85-4.55c1.967 0 3.46-0.81 4.48-2.43 1.013-1.613 1.52-4.02 1.52-7.22v0c0-4.4-0.54-7.65-1.62-9.75-1.087-2.1-2.747-3.15-4.98-3.15v0c-3.9 0-5.85 3.183-5.85 9.55v0c0 4.4 0.543 7.667 1.63 9.8 1.08 2.133 2.687 3.2 4.82 3.2zM36.6-16.6c0-0.833-0.117-1.417-0.35-1.75-0.233-0.333-0.633-0.5-1.2-0.5v0c-0.3 0-0.573 0.017-0.82 0.05-0.253 0.033-0.413 0.05-0.48 0.05v0l0.35-3.45c1.967-0.267 3.983-0.583 6.05-0.95 2.067-0.367 3.4-0.617 4-0.75v0l0.55 0.95c-0.367 0.8-0.683 2.54-0.95 5.22-0.267 2.687-0.4 5.53-0.4 8.53v0c0 2.433 0.9 3.65 2.7 3.65v0c0.5 0 1.017-0.117 1.55-0.35 0.533-0.233 1.167-0.583 1.9-1.05v0-9.55c0-0.933-0.123-1.54-0.37-1.82-0.253-0.287-0.797-0.447-1.63-0.48v0h-0.7l0.5-3.4c1.967-0.233 3.993-0.527 6.08-0.88 2.08-0.347 3.42-0.57 4.02-0.67v0l0.6 0.95c-0.433 0.767-0.79 2.64-1.07 5.62-0.287 2.987-0.43 6.297-0.43 9.93v0c0 0.567 0.15 1.023 0.45 1.37 0.3 0.353 0.7 0.53 1.2 0.53v0c0.433 0 0.883-0.1 1.35-0.3 0.467-0.2 0.7-0.317 0.7-0.35v0l0.8 1.15c-0.133 0.233-0.483 0.733-1.05 1.5-0.567 0.767-1.267 1.55-2.1 2.35-0.833 0.8-1.65 1.333-2.45 1.6v0c-3.2 0-5-1.25-5.4-3.75v0l-0.45-0.25c-1.167 1.2-2.2 2.157-3.1 2.87-0.9 0.72-1.517 1.08-1.85 1.08v0c-2.733 0-4.807-0.56-6.22-1.68-1.42-1.113-2.13-2.72-2.13-4.82v0zM62.55-3.4c0.967-0.067 1.633-0.317 2-0.75 0.367-0.433 0.55-1.2 0.55-2.3v0-9.4c0-1.167-0.15-1.95-0.45-2.35-0.3-0.4-0.9-0.6-1.8-0.6v0l-0.9 0.05-0.25-0.35 0.35-3.05c2.067-0.3 4.143-0.643 6.23-1.03 2.08-0.38 3.42-0.62 4.02-0.72v0l0.55 0.5c-0.067 0.267-0.173 0.857-0.32 1.77-0.153 0.92-0.247 1.813-0.28 2.68v0l0.35 0.2c1.067-1.533 2.2-2.71 3.4-3.53 1.2-0.813 2.417-1.22 3.65-1.22v0c0.367 0 0.733 0.023 1.1 0.07 0.367 0.053 0.6 0.097 0.7 0.13v0l0.2 0.45c-0.1 0.633-0.283 2-0.55 4.1-0.267 2.1-0.45 4.1-0.55 6v0l-3.85 0.25c0-1.7-0.1-2.833-0.3-3.4-0.2-0.567-0.583-0.85-1.15-0.85v0c-0.433 0-0.883 0.143-1.35 0.43-0.467 0.28-0.917 0.67-1.35 1.17v0c-0.067 0.9-0.157 2.383-0.27 4.45-0.12 2.067-0.197 3.7-0.23 4.9v0c0 0.733 0.133 1.25 0.4 1.55 0.267 0.3 0.717 0.45 1.35 0.45v0c0.567 0 1.11-0.027 1.63-0.08 0.513-0.047 0.853-0.087 1.02-0.12v0l0.2 0.35-0.6 3.9c-0.5-0.033-1.557-0.083-3.17-0.15-1.62-0.067-2.963-0.1-4.03-0.1v0c-1.3 0-2.65 0.033-4.05 0.1-1.4 0.067-2.317 0.117-2.75 0.15v0z" data-fill-palette-color="quaternary" fill="#ffffff" opacity="1"></path><path d="M15.9 52.8c-0.533-0.067-1.64-0.183-3.32-0.35-1.687-0.167-3.147-0.25-4.38-0.25v0c-1.133 0-2.433 0.06-3.9 0.18-1.467 0.113-2.417 0.203-2.85 0.27v0l0.4-3.95c1.367-0.233 2.283-0.633 2.75-1.2 0.467-0.567 0.7-1.55 0.7-2.95v0-18.05c0-1.067-0.1-1.783-0.3-2.15-0.2-0.367-0.583-0.55-1.15-0.55v0c-0.367 0-0.7 0.017-1 0.05-0.3 0.033-0.5 0.05-0.6 0.05v0l-0.4-0.55 0.45-3.5c0.533 0 1.493 0.027 2.88 0.08 1.38 0.047 2.703 0.07 3.97 0.07v0c1.5 0 3.067-0.033 4.7-0.1 1.633-0.067 2.767-0.117 3.4-0.15v0c5.167 0 9.133 1.29 11.9 3.87 2.767 2.587 4.15 6.297 4.15 11.13v0c0 3.567-0.723 6.717-2.17 9.45-1.453 2.733-3.497 4.85-6.13 6.35-2.633 1.5-5.667 2.25-9.1 2.25zM14.95 24.9c-0.467 0-0.783 0.09-0.95 0.27-0.167 0.187-0.267 0.513-0.3 0.98v0c-0.4 7-0.6 13.133-0.6 18.4v0c0 1.233 0.21 2.057 0.63 2.47 0.413 0.42 1.253 0.63 2.52 0.63v0c2.6 0 4.533-0.91 5.8-2.73 1.267-1.813 1.9-4.637 1.9-8.47v0c0-4.133-0.707-7.093-2.12-8.88-1.42-1.78-3.713-2.67-6.88-2.67zM53.4 52.8c-1.567 0-2.8-0.317-3.7-0.95-0.9-0.633-1.417-1.567-1.55-2.8v0l-0.5-0.2c-1.033 1.033-2.06 1.917-3.08 2.65-1.013 0.733-1.837 1.1-2.47 1.1v0c-1.3 0-2.493-0.343-3.58-1.03-1.08-0.68-1.93-1.62-2.55-2.82-0.613-1.2-0.92-2.517-0.92-3.95v0c0-1.067 0.283-1.993 0.85-2.78 0.567-0.78 1.3-1.27 2.2-1.47v0l9.7-2.05v-0.7c0-1.3-0.367-2.31-1.1-3.03-0.733-0.713-1.767-1.07-3.1-1.07v0c-0.867 0-1.833 0.227-2.9 0.68-1.067 0.447-2.033 0.97-2.9 1.57v0l-0.5-0.25-1.05-3.45c1.833-1 3.7-1.91 5.6-2.73 1.9-0.813 3.267-1.22 4.1-1.22v0c3.133 0 5.427 0.65 6.88 1.95 1.447 1.3 2.17 2.983 2.17 5.05v0c0 0.467-0.167 2-0.5 4.6v0c-0.033 0.4-0.133 1.217-0.3 2.45-0.167 1.233-0.25 2.1-0.25 2.6v0c0 0.567 0.15 1.023 0.45 1.37 0.3 0.353 0.7 0.53 1.2 0.53v0c0.633 0 1.333-0.217 2.1-0.65v0l0.8 1.15c-0.667 1.233-1.483 2.4-2.45 3.5-0.967 1.1-1.85 1.75-2.65 1.95zM44.5 47.1c0.433 0 0.94-0.093 1.52-0.28 0.587-0.18 1.113-0.403 1.58-0.67v0l0.1-4.5-4.55 1.15c-0.4 0.1-0.683 0.257-0.85 0.47-0.167 0.22-0.25 0.53-0.25 0.93v0c0 0.833 0.223 1.523 0.67 2.07 0.453 0.553 1.047 0.83 1.78 0.83zM59.55 52.75l0.5-3.75c0.967-0.133 1.683-0.443 2.15-0.93 0.467-0.48 0.7-1.187 0.7-2.12v0-9.8c0-1.1-0.16-1.85-0.48-2.25-0.313-0.4-0.903-0.6-1.77-0.6v0c-0.233 0-0.467 0.027-0.7 0.08-0.233 0.047-0.383 0.087-0.45 0.12v0l0.35-3.45c2.167-0.267 4.333-0.593 6.5-0.98 2.167-0.38 3.567-0.637 4.2-0.77v0l0.55 0.95c-0.367 0.733-0.66 2.657-0.88 5.77-0.213 3.12-0.32 7.03-0.32 11.73v0c0 0.7 0.1 1.19 0.3 1.47 0.2 0.287 0.567 0.43 1.1 0.43v0c0.267 0 0.533-0.017 0.8-0.05 0.267-0.033 0.45-0.05 0.55-0.05v0l0.1 0.2-0.5 3.65c-0.433-0.033-1.24-0.073-2.42-0.12-1.187-0.053-2.413-0.08-3.68-0.08v0c-1.1 0-2.367 0.077-3.8 0.23-1.433 0.147-2.367 0.253-2.8 0.32zM65.95 24.9c-1.3 0-2.3-0.36-3-1.08-0.7-0.713-1.05-1.703-1.05-2.97v0c0-1.367 0.41-2.467 1.23-3.3 0.813-0.833 1.887-1.25 3.22-1.25v0c1.267 0 2.25 0.367 2.95 1.1 0.7 0.733 1.05 1.733 1.05 3v0c0 1.367-0.4 2.457-1.2 3.27-0.8 0.82-1.867 1.23-3.2 1.23zM74.05 52.55l0.45-3.6c0.967-0.2 1.593-0.527 1.88-0.98 0.28-0.447 0.42-1.27 0.42-2.47v0-22.5c0-0.9-0.073-1.543-0.22-1.93-0.153-0.38-0.457-0.63-0.91-0.75-0.447-0.113-1.203-0.153-2.27-0.12v0l-0.25-0.3 0.35-3.1c4.433-0.567 8.3-1.133 11.6-1.7v0l0.4 1.1c-1.1 2.9-1.65 13.083-1.65 30.55v0c0 0.733 0.1 1.24 0.3 1.52 0.2 0.287 0.533 0.43 1 0.43v0l1.65-0.05 0.15 0.3-0.55 3.45c-2.867-0.133-5-0.2-6.4-0.2v0c-1.5 0-3.483 0.117-5.95 0.35zM90.3 64.3c-0.4 0-0.967-0.3-1.7-0.9-0.733-0.6-1.39-1.273-1.97-2.02-0.587-0.753-0.88-1.33-0.88-1.73v0l0.45-0.75c2.233-0.267 4.21-0.917 5.93-1.95 1.713-1.033 3.12-2.4 4.22-4.1v0l-1.1-3.05c-1.033-2.8-2.133-5.733-3.3-8.8-1.167-3.067-2.033-5.2-2.6-6.4v0c-0.333-0.733-0.717-1.243-1.15-1.53-0.433-0.28-0.983-0.453-1.65-0.52v0l-0.1-0.25 0.35-3.4h3.8c1.567 0 3.35-0.05 5.35-0.15 2-0.1 3-0.167 3-0.2v0l0.1 0.25-0.45 3.55c-0.867 0.033-1.44 0.14-1.72 0.32-0.287 0.187-0.43 0.48-0.43 0.88v0c0 0.633 0.407 2.39 1.22 5.27 0.82 2.887 1.38 4.83 1.68 5.83v0h0.7c2.6-6.833 3.9-10.583 3.9-11.25v0c0-0.333-0.093-0.567-0.28-0.7-0.18-0.133-0.52-0.2-1.02-0.2v0h-1.25l-0.2-0.3 0.5-3.45c0.367 0.033 1.067 0.067 2.1 0.1 1.033 0.033 2.133 0.05 3.3 0.05v0h4.8l-0.4 3.6c-0.733 0.167-1.25 0.39-1.55 0.67-0.3 0.287-0.583 0.813-0.85 1.58v0l-6.35 15.55c-3.867 9.333-8.017 14-12.45 14z" data-fill-palette-color="quaternary" fill="#ffffff" opacity="1"></path><path d="M8.45 105c-1.233 0-2.373-0.107-3.42-0.32-1.053-0.22-1.88-0.457-2.48-0.71-0.6-0.247-0.983-0.403-1.15-0.47v0l-0.4-0.6c0.167-1.1 0.417-3.267 0.75-6.5v0l3.3-0.3c0.033 1.433 0.417 2.55 1.15 3.35 0.733 0.8 1.75 1.2 3.05 1.2v0c0.8 0 1.46-0.167 1.98-0.5 0.513-0.333 0.77-0.767 0.77-1.3v0c0-0.6-0.3-1.127-0.9-1.58-0.6-0.447-1.833-1.103-3.7-1.97v0c-2.033-0.867-3.507-1.85-4.42-2.95-0.92-1.1-1.38-2.4-1.38-3.9v0c0-1.567 0.46-2.95 1.38-4.15 0.913-1.2 2.197-2.133 3.85-2.8 1.647-0.667 3.537-1 5.67-1v0c1.033 0 1.993 0.067 2.88 0.2 0.88 0.133 1.57 0.273 2.07 0.42 0.5 0.153 0.817 0.263 0.95 0.33v0l0.35 0.65c-0.067 0.367-0.21 1.217-0.43 2.55-0.213 1.333-0.387 2.7-0.52 4.1v0l-3.35 0.2 0.05-0.6c-0.033-1.133-0.3-1.973-0.8-2.52-0.5-0.553-1.283-0.83-2.35-0.83v0c-0.767 0-1.393 0.167-1.88 0.5-0.48 0.333-0.72 0.783-0.72 1.35v0c0 0.567 0.233 1.073 0.7 1.52 0.467 0.453 1.217 0.913 2.25 1.38v0c2.033 0.9 3.583 1.723 4.65 2.47 1.067 0.753 1.817 1.52 2.25 2.3 0.433 0.787 0.65 1.73 0.65 2.83v0c0 1.433-0.467 2.733-1.4 3.9-0.933 1.167-2.223 2.083-3.87 2.75-1.653 0.667-3.497 1-5.53 1zM30.85 105c-4.767 0-7.15-2.067-7.15-6.2v0-10.55c0-1.1-0.173-1.833-0.52-2.2-0.353-0.367-1.063-0.567-2.13-0.6v0l-0.6-0.4 0.35-2.9c1.433-0.667 2.86-1.433 4.28-2.3 1.413-0.867 2.587-1.617 3.52-2.25 0.933-0.633 1.517-1.05 1.75-1.25v0l1.6 0.9c-0.033 0.2-0.117 0.723-0.25 1.57-0.133 0.853-0.267 1.88-0.4 3.08v0l5.15-0.15 0.25 0.25-0.55 3.8-5.2-0.15c-0.167 3-0.25 6.333-0.25 10v0c0 1.267 0.227 2.2 0.68 2.8 0.447 0.6 1.17 0.9 2.17 0.9v0c0.533 0 1.083-0.083 1.65-0.25 0.567-0.167 0.933-0.283 1.1-0.35v0l0.7 1.8c-0.233 0.233-0.733 0.7-1.5 1.4-0.767 0.7-1.6 1.383-2.5 2.05-0.9 0.667-1.617 1-2.15 1zM40.55 87.8c0-0.833-0.117-1.417-0.35-1.75-0.233-0.333-0.633-0.5-1.2-0.5v0c-0.3 0-0.577 0.017-0.83 0.05-0.247 0.033-0.403 0.05-0.47 0.05v0l0.35-3.45c1.967-0.267 3.983-0.583 6.05-0.95 2.067-0.367 3.4-0.617 4-0.75v0l0.55 0.95c-0.367 0.8-0.683 2.54-0.95 5.22-0.267 2.687-0.4 5.53-0.4 8.53v0c0 2.433 0.9 3.65 2.7 3.65v0c0.5 0 1.017-0.117 1.55-0.35 0.533-0.233 1.167-0.583 1.9-1.05v0-9.55c0-0.933-0.123-1.54-0.37-1.82-0.253-0.287-0.797-0.447-1.63-0.48v0h-0.7l0.5-3.4c1.967-0.233 3.993-0.527 6.08-0.88 2.08-0.347 3.42-0.57 4.02-0.67v0l0.6 0.95c-0.433 0.767-0.79 2.64-1.07 5.62-0.287 2.987-0.43 6.297-0.43 9.93v0c0 0.567 0.15 1.023 0.45 1.37 0.3 0.353 0.7 0.53 1.2 0.53v0c0.433 0 0.883-0.1 1.35-0.3 0.467-0.2 0.7-0.317 0.7-0.35v0l0.8 1.15c-0.133 0.233-0.483 0.733-1.05 1.5-0.567 0.767-1.267 1.55-2.1 2.35-0.833 0.8-1.65 1.333-2.45 1.6v0c-3.2 0-5-1.25-5.4-3.75v0l-0.45-0.25c-1.167 1.2-2.2 2.157-3.1 2.87-0.9 0.72-1.517 1.08-1.85 1.08v0c-2.733 0-4.807-0.56-6.22-1.68-1.42-1.113-2.13-2.72-2.13-4.82v0zM86.35 105c-1.533 0-2.75-0.31-3.65-0.93-0.9-0.613-1.433-1.503-1.6-2.67v0l-0.35-0.15c-3.133 2.367-4.983 3.55-5.55 3.55v0c-2.933 0-5.24-0.993-6.92-2.98-1.687-1.98-2.53-4.703-2.53-8.17v0c0-2.567 0.533-4.827 1.6-6.78 1.067-1.947 2.56-3.463 4.48-4.55 1.913-1.08 4.12-1.62 6.62-1.62v0c0.933 0 1.617 0.017 2.05 0.05v0-5.4c0-1.1-0.15-1.85-0.45-2.25-0.3-0.4-0.883-0.6-1.75-0.6v0c-0.233 0-0.467 0.017-0.7 0.05-0.233 0.033-0.4 0.05-0.5 0.05v0l0.4-3.55c2.233-0.267 4.493-0.593 6.78-0.98 2.28-0.38 3.753-0.637 4.42-0.77v0l0.5 0.95c-0.467 0.667-0.857 3.767-1.17 9.3-0.32 5.533-0.48 12.067-0.48 19.6v0c0 0.567 0.127 1.023 0.38 1.37 0.247 0.353 0.587 0.53 1.02 0.53v0c0.433 0 0.843-0.093 1.23-0.28 0.38-0.18 0.62-0.303 0.72-0.37v0l0.8 1.15c0 0.067-0.273 0.507-0.82 1.32-0.553 0.82-1.22 1.64-2 2.46-0.787 0.813-1.63 1.37-2.53 1.67zM77.55 99.4c0.467 0 0.917-0.083 1.35-0.25 0.433-0.167 0.793-0.343 1.08-0.53 0.28-0.18 0.453-0.303 0.52-0.37v0-12.05c-0.067-0.033-0.233-0.11-0.5-0.23-0.267-0.113-0.623-0.22-1.07-0.32-0.453-0.1-0.947-0.15-1.48-0.15v0c-1.267 0-2.25 0.533-2.95 1.6-0.7 1.067-1.05 2.6-1.05 4.6v0c0 2.467 0.36 4.367 1.08 5.7 0.713 1.333 1.72 2 3.02 2zM94.55 116.5c-0.4 0-0.967-0.3-1.7-0.9-0.733-0.6-1.39-1.273-1.97-2.02-0.587-0.753-0.88-1.33-0.88-1.73v0l0.45-0.75c2.233-0.267 4.21-0.917 5.93-1.95 1.713-1.033 3.12-2.4 4.22-4.1v0l-1.1-3.05c-1.033-2.8-2.133-5.733-3.3-8.8-1.167-3.067-2.033-5.2-2.6-6.4v0c-0.333-0.733-0.717-1.243-1.15-1.53-0.433-0.28-0.983-0.453-1.65-0.52v0l-0.1-0.25 0.35-3.4h3.8c1.567 0 3.35-0.05 5.35-0.15 2-0.1 3-0.167 3-0.2v0l0.1 0.25-0.45 3.55c-0.867 0.033-1.44 0.14-1.72 0.32-0.287 0.187-0.43 0.48-0.43 0.88v0c0 0.633 0.407 2.39 1.22 5.27 0.82 2.887 1.38 4.83 1.68 5.83v0h0.7c2.6-6.833 3.9-10.583 3.9-11.25v0c0-0.333-0.093-0.567-0.28-0.7-0.18-0.133-0.52-0.2-1.02-0.2v0h-1.25l-0.2-0.3 0.5-3.45c0.367 0.033 1.067 0.067 2.1 0.1 1.033 0.033 2.133 0.05 3.3 0.05v0h4.8l-0.4 3.6c-0.733 0.167-1.25 0.39-1.55 0.67-0.3 0.287-0.583 0.813-0.85 1.58v0l-6.35 15.55c-3.867 9.333-8.017 14-12.45 14z" data-fill-palette-color="quaternary" fill="#ffffff" opacity="1"></path><path d="M3.3 140c0-0.833-0.117-1.417-0.35-1.75-0.233-0.333-0.633-0.5-1.2-0.5v0c-0.3 0-0.573 0.017-0.82 0.05-0.253 0.033-0.413 0.05-0.48 0.05v0l0.35-3.45c1.967-0.267 3.983-0.583 6.05-0.95 2.067-0.367 3.4-0.617 4-0.75v0l0.55 0.95c-0.367 0.8-0.683 2.54-0.95 5.22-0.267 2.687-0.4 5.53-0.4 8.53v0c0 2.433 0.9 3.65 2.7 3.65v0c0.5 0 1.017-0.117 1.55-0.35 0.533-0.233 1.167-0.583 1.9-1.05v0-9.55c0-0.933-0.123-1.54-0.37-1.82-0.253-0.287-0.797-0.447-1.63-0.48v0h-0.7l0.5-3.4c1.967-0.233 3.993-0.527 6.08-0.88 2.08-0.347 3.42-0.57 4.02-0.67v0l0.6 0.95c-0.433 0.767-0.79 2.64-1.07 5.62-0.287 2.987-0.43 6.297-0.43 9.93v0c0 0.567 0.15 1.023 0.45 1.37 0.3 0.353 0.7 0.53 1.2 0.53v0c0.433 0 0.883-0.1 1.35-0.3 0.467-0.2 0.7-0.317 0.7-0.35v0l0.8 1.15c-0.133 0.233-0.483 0.733-1.05 1.5-0.567 0.767-1.267 1.55-2.1 2.35-0.833 0.8-1.65 1.333-2.45 1.6v0c-3.2 0-5-1.25-5.4-3.75v0l-0.45-0.25c-1.167 1.2-2.2 2.157-3.1 2.87-0.9 0.72-1.517 1.08-1.85 1.08v0c-2.733 0-4.807-0.56-6.22-1.68-1.42-1.113-2.13-2.72-2.13-4.82v0zM28.5 168.4l0.5-3.65c0.867-0.067 1.433-0.283 1.7-0.65 0.267-0.367 0.433-1.117 0.5-2.25v0c0-0.333 0.033-0.9 0.1-1.7v0c0.133-2.4 0.2-4.283 0.2-5.65v0-13.7c0-1.167-0.167-1.95-0.5-2.35-0.333-0.4-0.983-0.6-1.95-0.6v0h-0.7l-0.2-0.3 0.3-3.15c2.133-0.3 4.227-0.633 6.28-1 2.047-0.367 3.37-0.6 3.97-0.7v0l0.5 0.55c-0.033 0.2-0.117 0.65-0.25 1.35-0.133 0.7-0.233 1.367-0.3 2v0l0.2 0.15c2.5-2.567 4.033-3.85 4.6-3.85v0c2 0 3.76 0.467 5.28 1.4 1.513 0.933 2.687 2.24 3.52 3.92 0.833 1.687 1.25 3.63 1.25 5.83v0c0 2.7-0.567 5.023-1.7 6.97-1.133 1.953-2.723 3.447-4.77 4.48-2.053 1.033-4.447 1.55-7.18 1.55v0c-0.3 0-0.583-0.017-0.85-0.05-0.267-0.033-0.45-0.05-0.55-0.05v0 4.35c0 1.267 0.083 2.117 0.25 2.55 0.167 0.433 0.6 0.65 1.3 0.65v0c0.6 0 1.083-0.017 1.45-0.05 0.367-0.033 0.6-0.05 0.7-0.05v0l0.15 0.2-0.6 3.65-1.5-0.05c-2.067-0.067-3.817-0.1-5.25-0.1v0c-1.133 0-2.39 0.043-3.77 0.13-1.387 0.08-2.28 0.137-2.68 0.17zM41.8 152.25c1.267 0 2.25-0.533 2.95-1.6 0.7-1.067 1.05-2.6 1.05-4.6v0c0-2.4-0.357-4.24-1.07-5.52-0.72-1.287-1.73-1.93-3.03-1.93v0c-0.833 0-1.75 0.333-2.75 1v0c-0.167 4.267-0.25 8.283-0.25 12.05v0c1.067 0.4 2.1 0.6 3.1 0.6zM76.2 157.2c-1.533 0-2.75-0.31-3.65-0.93-0.9-0.613-1.433-1.503-1.6-2.67v0l-0.35-0.15c-3.133 2.367-4.983 3.55-5.55 3.55v0c-2.933 0-5.24-0.993-6.92-2.98-1.687-1.98-2.53-4.703-2.53-8.17v0c0-2.567 0.533-4.827 1.6-6.78 1.067-1.947 2.56-3.463 4.48-4.55 1.913-1.08 4.12-1.62 6.62-1.62v0c0.933 0 1.617 0.017 2.05 0.05v0-5.4c0-1.1-0.15-1.85-0.45-2.25-0.3-0.4-0.883-0.6-1.75-0.6v0c-0.233 0-0.467 0.017-0.7 0.05-0.233 0.033-0.4 0.05-0.5 0.05v0l0.4-3.55c2.233-0.267 4.493-0.593 6.78-0.98 2.28-0.38 3.753-0.637 4.42-0.77v0l0.5 0.95c-0.467 0.667-0.857 3.767-1.17 9.3-0.32 5.533-0.48 12.067-0.48 19.6v0c0 0.567 0.127 1.023 0.38 1.37 0.247 0.353 0.587 0.53 1.02 0.53v0c0.433 0 0.843-0.093 1.23-0.28 0.38-0.18 0.62-0.303 0.72-0.37v0l0.8 1.15c0 0.067-0.273 0.507-0.82 1.32-0.553 0.82-1.22 1.64-2 2.46-0.787 0.813-1.63 1.37-2.53 1.67zM67.4 151.6c0.467 0 0.917-0.083 1.35-0.25 0.433-0.167 0.793-0.343 1.08-0.53 0.28-0.18 0.453-0.303 0.52-0.37v0-12.05c-0.067-0.033-0.233-0.11-0.5-0.23-0.267-0.113-0.623-0.22-1.07-0.32-0.453-0.1-0.947-0.15-1.48-0.15v0c-1.267 0-2.25 0.533-2.95 1.6-0.7 1.067-1.05 2.6-1.05 4.6v0c0 2.467 0.36 4.367 1.08 5.7 0.713 1.333 1.72 2 3.02 2zM100.7 157.2c-1.567 0-2.8-0.317-3.7-0.95-0.9-0.633-1.417-1.567-1.55-2.8v0l-0.5-0.2c-1.033 1.033-2.057 1.917-3.07 2.65-1.02 0.733-1.847 1.1-2.48 1.1v0c-1.3 0-2.49-0.343-3.57-1.03-1.087-0.68-1.937-1.62-2.55-2.82-0.62-1.2-0.93-2.517-0.93-3.95v0c0-1.067 0.283-1.993 0.85-2.78 0.567-0.78 1.3-1.27 2.2-1.47v0l9.7-2.05v-0.7c0-1.3-0.367-2.31-1.1-3.03-0.733-0.713-1.767-1.07-3.1-1.07v0c-0.867 0-1.833 0.227-2.9 0.68-1.067 0.447-2.033 0.97-2.9 1.57v0l-0.5-0.25-1.05-3.45c1.833-1 3.7-1.91 5.6-2.73 1.9-0.813 3.267-1.22 4.1-1.22v0c3.133 0 5.427 0.65 6.88 1.95 1.447 1.3 2.17 2.983 2.17 5.05v0c0 0.467-0.167 2-0.5 4.6v0c-0.033 0.4-0.133 1.217-0.3 2.45-0.167 1.233-0.25 2.1-0.25 2.6v0c0 0.567 0.15 1.023 0.45 1.37 0.3 0.353 0.7 0.53 1.2 0.53v0c0.633 0 1.333-0.217 2.1-0.65v0l0.8 1.15c-0.667 1.233-1.483 2.4-2.45 3.5-0.967 1.1-1.85 1.75-2.65 1.95zM91.8 151.5c0.433 0 0.943-0.093 1.53-0.28 0.58-0.18 1.103-0.403 1.57-0.67v0l0.1-4.5-4.55 1.15c-0.4 0.1-0.683 0.257-0.85 0.47-0.167 0.22-0.25 0.53-0.25 0.93v0c0 0.833 0.227 1.523 0.68 2.07 0.447 0.553 1.037 0.83 1.77 0.83zM116.2 157.2c-4.767 0-7.15-2.067-7.15-6.2v0-10.55c0-1.1-0.173-1.833-0.52-2.2-0.353-0.367-1.063-0.567-2.13-0.6v0l-0.6-0.4 0.35-2.9c1.433-0.667 2.86-1.433 4.28-2.3 1.413-0.867 2.587-1.617 3.52-2.25 0.933-0.633 1.517-1.05 1.75-1.25v0l1.6 0.9c-0.033 0.2-0.117 0.723-0.25 1.57-0.133 0.853-0.267 1.88-0.4 3.08v0l5.15-0.15 0.25 0.25-0.55 3.8-5.2-0.15c-0.167 3-0.25 6.333-0.25 10v0c0 1.267 0.227 2.2 0.68 2.8 0.447 0.6 1.17 0.9 2.17 0.9v0c0.533 0 1.083-0.083 1.65-0.25 0.567-0.167 0.933-0.283 1.1-0.35v0l0.7 1.8c-0.233 0.233-0.733 0.7-1.5 1.4-0.767 0.7-1.6 1.383-2.5 2.05-0.9 0.667-1.617 1-2.15 1zM135.35 157.2c-3.7 0-6.573-1.043-8.62-3.13-2.053-2.08-3.08-4.97-3.08-8.67v0c0-2.433 0.517-4.617 1.55-6.55 1.033-1.933 2.477-3.443 4.33-4.53 1.847-1.08 3.953-1.62 6.32-1.62v0c5.933 0 8.9 3.05 8.9 9.15v0c0 1.033-0.117 2.05-0.35 3.05v0l-0.6 0.55h-12.45c0.067 2 0.61 3.523 1.63 4.57 1.013 1.053 2.403 1.58 4.17 1.58v0c1.767 0 3.717-0.483 5.85-1.45v0l0.45 0.2 0.9 3c-1.267 0.967-2.75 1.85-4.45 2.65-1.7 0.8-3.217 1.2-4.55 1.2zM131.25 142.25l5.65-0.35c0.333-0.067 0.55-0.16 0.65-0.28 0.1-0.113 0.15-0.37 0.15-0.77v0c0-2.333-0.9-3.5-2.7-3.5v0c-2.367 0-3.617 1.633-3.75 4.9z" data-fill-palette-color="quaternary" fill="#ffffff" opacity="1"></path></g></svg></g></svg></g><g transform="matrix(1,0,0,1,0,200.96459818812687)"><svg viewBox="0 0 131.56636126298787 13.539067602978669" height="13.539067602978669" width="131.56636126298787"><g transform="matrix(1,0,0,1,0,0)"><svg width="131.56636126298787" viewBox="4.2 -32.67 323.33 33.28" height="13.539067602978669" data-palette-color="#ffffff"><path d="M11.28 0L8.96 0Q5.37 0 4.2 0.15L4.2 0.15 4.2-32.62Q4.79-32.47 6.63-32.47 8.47-32.47 10.91-32.57L10.91-32.57 10.91-5.86 15.97-5.86Q18.16-5.86 19.48-6.01L19.48-6.01Q19.31-0.29 19.31-0.07L19.31-0.07 19.31 0.17Q16.92 0 11.28 0L11.28 0ZM23.24-12.55L23.24-12.55Q23.24-15.41 24.22-17.85 25.19-20.29 26.98-22.12L26.98-22.12Q30.78-26 36.94-26L36.94-26Q42.14-26 45.29-22.56L45.29-22.56Q48.39-19.24 48.39-14.21L48.39-14.21Q48.39-12.28 48.09-11.57L48.09-11.57Q45.65-10.89 38.16-10.89L38.16-10.89 29.56-10.89Q30.2-8.28 32.52-6.82 34.84-5.37 38.55-5.37L38.55-5.37Q42.43-5.37 45.21-6.76L45.21-6.76Q45.94-7.13 46.31-7.45L46.31-7.45Q46.26-6.42 46.19-5.35L46.19-5.35 45.92-1.54Q44.06-0.27 39.91 0.22L39.91 0.22Q38.69 0.37 37.57 0.37L37.57 0.37Q31.37 0.37 27.32-3.25L27.32-3.25Q23.24-6.88 23.24-12.55ZM41.89-15.63L41.89-15.63Q40.89-20.87 36.18-20.87L36.18-20.87Q32.47-20.87 30.54-17.68L30.54-17.68Q29.95-16.7 29.64-15.53L29.64-15.53Q30.22-15.5 31.08-15.48L31.08-15.48 32.88-15.48Q33.79-15.45 34.62-15.45L34.62-15.45 36.01-15.45Q37.25-15.45 38.45-15.48L38.45-15.48 40.45-15.55Q41.26-15.58 41.89-15.63ZM70.53-1.51L70.53-1.51Q67.06 0.37 64.25 0.37 61.45 0.37 59.44-0.16 57.44-0.68 56.05-1.71L56.05-1.71Q53.22-3.78 53.22-7.71L53.22-7.71Q53.22-11.23 56.68-13.57L56.68-13.57Q60.44-16.11 66.89-16.11L66.89-16.11 67.87-16.09Q68.16-16.06 68.53-16.05 68.89-16.04 69.18-15.99L69.18-15.99Q68.99-19.9 65.82-20.56L65.82-20.56Q64.77-20.78 63.58-20.78 62.4-20.78 61.26-20.57 60.13-20.36 59.05-20.02L59.05-20.02Q56.68-19.26 55.66-18.29L55.66-18.29 55.59-18.33 54.85-23.73Q59.17-26 64.3-26L64.3-26Q72.26-26 74.48-20.26L74.48-20.26Q75.19-18.43 75.19-16.14L75.19-16.14 75.19-7.3Q75.19-4.47 77.19-3.44L77.19-3.44 72.77 0.61Q71.38-0.12 70.53-1.51ZM69.21-6.49L69.21-11.6Q68.55-11.72 67.84-11.72L67.84-11.72 66.87-11.72Q61.47-11.72 60-9.33L60-9.33Q59.57-8.62 59.57-7.84 59.57-7.06 59.85-6.46 60.13-5.86 60.79-5.47L60.79-5.47Q62.06-4.74 64.56-4.74 67.06-4.74 69.23-5.93L69.23-5.93Q69.21-6.2 69.21-6.49L69.21-6.49ZM88.57-17.77L88.57-2.73Q88.57-0.63 88.66 0L88.66 0 82.59 0 82.59-25.51 88.57-25.51 88.57-23.63Q90.64-26 92.92-26 95.21-26 96.53-25.44L96.53-25.44 96.09-18.87 95.99-18.8Q95.13-20.31 92.45-20.31L92.45-20.31Q91.42-20.31 90.36-19.62 89.3-18.92 88.57-17.77L88.57-17.77ZM105.92-17.07L105.92-3.13Q105.92-0.98 106.12 0L106.12 0 99.99 0 99.99-25.51 105.92-25.51 105.92-23.34Q109.15-26 112.81-26L112.81-26Q116.81-26 119.2-23.28 121.6-20.56 121.6-16.11L121.6-16.11 121.6-6.4Q121.6-2.27 121.72-1.44 121.84-0.61 122.05-0.37 122.26-0.12 122.4 0.07L122.4 0.07 122.35 0.17Q120.38 0 119.47 0L119.47 0 117.76 0Q116.98 0 115.66 0.07L115.66 0.07 115.66-13.23Q115.66-20.39 111.32-20.39L111.32-20.39Q108.1-20.39 105.92-17.07L105.92-17.07ZM162.95-20.07L163.02-14.04Q161.85-14.16 159.99-14.16L159.99-14.16 152.6-14.16 152.6 0 145.91 0 145.91-32.64Q146.57-32.59 147.42-32.57L147.42-32.57 149.23-32.52Q151.08-32.47 153.09-32.47L153.09-32.47Q159.09-32.47 164.56-32.67L164.56-32.67Q164.29-30.52 164.29-26.93L164.29-26.93Q164.29-26.54 164.34-26.34L164.34-26.34 164.29-26.27Q163-26.64 160.68-26.64L160.68-26.64 152.6-26.64 152.6-19.92 159.73-19.92Q162.41-19.92 162.95-20.07L162.95-20.07ZM168.39-12.62L168.39-12.62Q168.39-15.31 169.31-17.76 170.22-20.21 171.93-22.05L171.93-22.05Q175.67-26 181.62-26L181.62-26Q187.56-26 191.05-22.27L191.05-22.27Q194.39-18.7 194.39-13.01L194.39-13.01Q194.39-7.32 190.95-3.59L190.95-3.59Q187.31 0.37 181.31 0.37L181.31 0.37Q175.1 0.37 171.59-3.52L171.59-3.52Q168.39-7.06 168.39-12.62ZM174.32-12.77L174.32-12.77Q174.32-11.23 174.84-9.79 175.35-8.35 176.3-7.32L176.3-7.32Q178.33-5.1 181.62-5.1L181.62-5.1Q184.67-5.1 186.43-7.28L186.43-7.28Q188.14-9.38 188.14-12.74L188.14-12.74Q188.14-16.16 186.38-18.26L186.38-18.26Q184.5-20.51 181.23-20.51L181.23-20.51Q177.91-20.51 176.03-18.12L176.03-18.12Q174.32-15.92 174.32-12.77ZM205.23-17.77L205.23-2.73Q205.23-0.63 205.33 0L205.33 0 199.25 0 199.25-25.51 205.23-25.51 205.23-23.63Q207.3-26 209.59-26 211.87-26 213.19-25.44L213.19-25.44 212.75-18.87 212.65-18.8Q211.8-20.31 209.11-20.31L209.11-20.31Q208.09-20.31 207.02-19.62 205.96-18.92 205.23-17.77L205.23-17.77ZM250.39-20.07L250.46-14.04Q249.29-14.16 247.44-14.16L247.44-14.16 240.04-14.16 240.04 0 233.35 0 233.35-32.64Q234.01-32.59 234.86-32.57L234.86-32.57 236.67-32.52Q238.52-32.47 240.53-32.47L240.53-32.47Q246.53-32.47 252-32.67L252-32.67Q251.73-30.52 251.73-26.93L251.73-26.93Q251.73-26.54 251.78-26.34L251.78-26.34 251.73-26.27Q250.44-26.64 248.12-26.64L248.12-26.64 240.04-26.64 240.04-19.92 247.17-19.92Q249.85-19.92 250.39-20.07L250.39-20.07ZM263.45-17.77L263.45-2.73Q263.45-0.63 263.55 0L263.55 0 257.47 0 257.47-25.51 263.45-25.51 263.45-23.63Q265.52-26 267.81-26 270.09-26 271.41-25.44L271.41-25.44 270.97-18.87 270.87-18.8Q270.02-20.31 267.33-20.31L267.33-20.31Q266.31-20.31 265.24-19.62 264.18-18.92 263.45-17.77L263.45-17.77ZM273.16-12.55L273.16-12.55Q273.16-15.41 274.14-17.85 275.12-20.29 276.9-22.12L276.9-22.12Q280.71-26 286.86-26L286.86-26Q292.06-26 295.21-22.56L295.21-22.56Q298.31-19.24 298.31-14.21L298.31-14.21Q298.31-12.28 298.02-11.57L298.02-11.57Q295.58-10.89 288.08-10.89L288.08-10.89 279.49-10.89Q280.12-8.28 282.44-6.82 284.76-5.37 288.47-5.37L288.47-5.37Q292.35-5.37 295.14-6.76L295.14-6.76Q295.87-7.13 296.23-7.45L296.23-7.45Q296.19-6.42 296.11-5.35L296.11-5.35 295.84-1.54Q293.99-0.27 289.84 0.22L289.84 0.22Q288.62 0.37 287.49 0.37L287.49 0.37Q281.29 0.37 277.24-3.25L277.24-3.25Q273.16-6.88 273.16-12.55ZM291.82-15.63L291.82-15.63Q290.81-20.87 286.1-20.87L286.1-20.87Q282.39-20.87 280.46-17.68L280.46-17.68Q279.88-16.7 279.56-15.53L279.56-15.53Q280.15-15.5 281-15.48L281-15.48 282.81-15.48Q283.71-15.45 284.54-15.45L284.54-15.45 285.93-15.45Q287.18-15.45 288.37-15.48L288.37-15.48 290.38-15.55Q291.18-15.58 291.82-15.63ZM302.38-12.55L302.38-12.55Q302.38-15.41 303.36-17.85 304.34-20.29 306.12-22.12L306.12-22.12Q309.93-26 316.08-26L316.08-26Q321.28-26 324.43-22.56L324.43-22.56Q327.53-19.24 327.53-14.21L327.53-14.21Q327.53-12.28 327.24-11.57L327.24-11.57Q324.8-10.89 317.3-10.89L317.3-10.89 308.71-10.89Q309.34-8.28 311.66-6.82 313.98-5.37 317.69-5.37L317.69-5.37Q321.57-5.37 324.36-6.76L324.36-6.76Q325.09-7.13 325.46-7.45L325.46-7.45Q325.41-6.42 325.33-5.35L325.33-5.35 325.07-1.54Q323.21-0.27 319.06 0.22L319.06 0.22Q317.84 0.37 316.72 0.37L316.72 0.37Q310.51 0.37 306.46-3.25L306.46-3.25Q302.38-6.88 302.38-12.55ZM321.04-15.63L321.04-15.63Q320.04-20.87 315.32-20.87L315.32-20.87Q311.61-20.87 309.68-17.68L309.68-17.68Q309.1-16.7 308.78-15.53L308.78-15.53Q309.37-15.5 310.22-15.48L310.22-15.48 312.03-15.48Q312.93-15.45 313.76-15.45L313.76-15.45 315.15-15.45Q316.4-15.45 317.59-15.48L317.59-15.48 319.6-15.55Q320.4-15.58 321.04-15.63Z" opacity="1" transform="matrix(1,0,0,1,0,0)" fill="#ffffff" class="undefined-text-1" data-fill-palette-color="quaternary" id="text-1"></path></svg></g></svg></g></svg></g></svg></g><g transform="matrix(1,0,0,1,0,66.3896574882595)"><svg viewBox="0 0 121.96201689078976 81.72435081458651" height="81.72435081458651" width="121.96201689078976"><g><svg xmlns="http://www.w3.org/2000/svg" xmlns:xlink="http://www.w3.org/1999/xlink" version="1.1" x="0" y="0" viewBox="0.8309999999999995 11.114861138173417 62.339 41.77213886182658" enable-background="new 0 0 64 64" xml:space="preserve" height="81.72435081458651" width="121.96201689078976" class="icon-icon-0" data-fill-palette-color="quaternary" id="icon-0"><g fill="#ffffff" data-fill-palette-color="quaternary"><polygon fill="#ffffff" points="7.885,25.74 7.669,25.622 7.669,25.613  " data-fill-palette-color="quaternary"></polygon><g fill="#ffffff" data-fill-palette-color="quaternary"><path fill="#ffffff" d="M50.064 35.106c0-0.02-0.01-0.04-0.01-0.05-0.06-1.223 0.04-2.425-0.281-3.628-0.16-0.621-0.331-1.042-0.872-1.393-0.631-0.411-1.253-0.842-1.934-1.173-1.684-0.842-3.448-1.413-5.312-1.804-4.029-0.832-8.088-1.032-12.167-0.872-1.704 0.07-3.407 0.19-5.091 0.431-2.856 0.421-5.642 1.122-8.188 2.556-0.952 0.531-1.634 0.882-1.904 1.984-0.631 2.606-0.591 6.685-0.672 9.341-0.01 0.501 0.18 0.862 0.561 1.112 0.371 0.251 0.762 0.481 1.183 0.651 2.485 1.002 5.141 1.293 7.767 1.674 1.353 0.2 2.736 0.261 4.099 0.301 6.073 0.18 12.147 0.17 18.13-1.092 1.393-0.291 2.726-0.902 4.059-1.423 0.451-0.18 0.752-0.601 0.742-1.143C50.144 39.285 50.134 36.399 50.064 35.106zM47.578 41.249c-0.651 0.291-1.333 0.571-2.024 0.702-1.243 0.241-2.506 0.451-3.768 0.541-2.405 0.16-4.821 0.291-7.226 0.411-0.902 0.05-1.794 0.07-2.686 0.06-1.433 0-2.846-0.06-4.289-0.13-1.794-0.09-3.578-0.19-5.362-0.341-1.864-0.17-3.758-0.331-5.532-1.032-0.06-0.02-0.13-0.03-0.18-0.06-0.491-0.221-1.142-0.692-0.521-1.153 0.411-0.301 0.982-0.391 1.463-0.521 0.862-0.251 1.754-0.461 2.646-0.601 3.237-0.511 6.494-0.651 9.771-0.631 3.047 0.02 6.093-0.04 9.14 0.12 2.235 0.12 4.46 0.521 6.675 0.852 0.561 0.08 1.142 0.17 1.654 0.411C47.889 40.137 48.41 40.878 47.578 41.249z" data-fill-palette-color="quaternary"></path></g><path fill="#ffffff" d="M8.763 39.708c0.521 1.894 1.914 7.476 1.914 12.127 0 0-0.581 0.932-2.796 1.052-2.205-0.12-2.786-1.052-2.786-1.052 0-4.65 1.393-10.233 1.904-12.127-0.451-0.291-0.742-0.792-0.742-1.363 0-0.762 0.521-1.393 1.223-1.573v-3.087l0.812 0.481v2.606c0.701 0.18 1.223 0.812 1.223 1.573C9.514 38.916 9.214 39.417 8.763 39.708z" data-fill-palette-color="quaternary"></path><path fill="#ffffff" d="M63.17 28.5c-3.548 2.037-6.991 4.021-10.552 6.084l-0.591 0.342v-0.145l-0.013-0.053c-0.013-0.237-0.013-0.473-0.013-0.71-0.013-0.933-0.026-1.997-0.315-3.088-0.237-0.894-0.605-1.827-1.708-2.549l-0.302-0.197c-0.565-0.368-1.156-0.762-1.827-1.091-1.748-0.867-3.653-1.511-5.795-1.971-3.141-0.644-6.426-0.959-10.04-0.959-0.867 0-1.735 0.013-2.602 0.053-2.063 0.092-3.745 0.223-5.296 0.447-3.627 0.539-6.439 1.419-8.949 2.838-1.025 0.565-2.313 1.288-2.773 3.193-0.302 1.209-0.46 2.655-0.539 4.126l-0.894-0.526-1.879-1.064L8.872 33.1l-0.788-0.46-0.21-0.131-2.444-1.393c-1.459-0.854-2.957-1.708-4.599-2.654 0.736-0.46 1.275-0.815 1.827-1.13 9.33-5.256 18.673-10.5 27.977-15.795 1.012-0.565 1.761-0.565 2.773 0.013 9.462 5.388 18.962 10.71 28.437 16.058C62.251 27.83 62.632 28.119 63.17 28.5z" data-fill-palette-color="quaternary"></path></g></svg><g></g></g></svg></g></svg></g></svg></g></svg></g></svg></g></svg><rect width="342.8515585177538" height="342.8515585177538" fill="none" stroke="none" visibility="hidden"></rect></g></svg></g></svg>